<?xml version="1.0" standalone="no"?>
<!DOCTYPE svg PUBLIC "-//W3C//DTD SVG 20010904//EN"
 "http://www.w3.org/TR/2001/REC-SVG-20010904/DTD/svg10.dtd">
<svg version="1.0" xmlns="http://www.w3.org/2000/svg"
 width="500.000000pt" height="500.000000pt" viewBox="0 0 500.000000 500.000000"
 preserveAspectRatio="xMidYMid meet">

<g transform="translate(0.000000,500.000000) scale(0.100000,-0.100000)"
fill="#000000" stroke="none">
<path d="M2264 4280 c-190 -21 -348 -67 -519 -150 -457 -221 -773 -658 -846
-1169 -19 -134 -6 -422 24 -551 65 -273 190 -505 378 -704 229 -242 466 -376
813 -458 122 -29 430 -32 576 -4 547 101 1001 492 1179 1013 54 156 72 262 78
448 4 144 2 189 -15 292 -56 324 -198 602 -424 832 -232 235 -507 379 -837
436 -105 19 -313 26 -407 15z m419 -55 c172 -30 397 -117 531 -203 233 -150
436 -378 550 -617 87 -181 131 -345 145 -540 54 -735 -420 -1385 -1144 -1567
-103 -26 -144 -30 -295 -35 -149 -4 -193 -2 -300 17 -853 146 -1404 973 -1208
1815 140 604 657 1068 1273 1144 107 13 339 6 448 -14z"/>
<path d="M2425 3863 c-55 -14 -115 -89 -115 -145 0 -22 -8 -27 -61 -42 -323
-89 -595 -370 -679 -701 l-18 -70 -50 -6 c-100 -13 -155 -71 -155 -164 0 -96
63 -159 155 -157 44 1 48 -1 53 -26 70 -350 338 -648 679 -752 l74 -23 4 -53
c7 -87 75 -154 156 -154 15 0 48 10 72 22 52 27 90 89 90 148 0 36 0 37 63 54
149 41 348 164 454 280 103 112 187 267 225 411 l23 90 60 5 c72 7 96 21 126
74 64 114 -14 245 -148 246 -41 0 -41 0 -48 43 -9 54 -50 166 -86 238 -49 98
-89 151 -189 249 -130 128 -275 213 -427 249 -48 12 -51 15 -57 49 -16 98
-106 158 -201 135z m95 -103 c16 -16 20 -33 20 -94 0 -82 -3 -86 -70 -86 -67
0 -70 3 -70 91 0 69 2 80 22 93 31 22 74 20 98 -4z m-20 -315 c72 -37 498
-324 503 -340 11 -28 8 -44 -13 -65 -38 -38 -123 -17 -106 25 4 12 -46 50
-200 151 -114 74 -212 133 -220 130 -7 -3 -102 -64 -212 -136 -157 -103 -198
-134 -198 -151 1 -12 -6 -26 -15 -32 -24 -15 -87 0 -100 24 -24 46 -6 64 209
206 200 132 312 203 319 203 2 0 17 -7 33 -15z m4 -226 c30 -23 33 -45 10 -77
-10 -14 -25 -22 -44 -22 -58 0 -80 89 -27 110 31 12 31 12 61 -11z m-669 -123
c0 -40 -27 -56 -54 -32 -12 11 -21 24 -21 31 0 20 24 36 50 33 20 -2 25 -8 25
-32z m1333 22 c18 -18 14 -46 -7 -58 -36 -19 -68 11 -56 51 7 22 45 25 63 7z
m-660 -90 c9 -9 12 -125 12 -460 0 -246 3 -448 8 -448 4 0 86 53 182 118 148
99 175 121 175 142 0 23 4 25 52 28 48 3 54 1 64 -22 24 -51 11 -64 -248 -235
-137 -91 -259 -166 -273 -169 -20 -3 -82 34 -270 158 -135 89 -253 169 -262
177 -22 20 -23 57 -2 78 12 11 30 15 63 13 42 -3 46 -5 46 -28 0 -21 26 -42
175 -142 96 -64 178 -117 183 -117 4 -1 7 201 7 447 0 335 3 451 12 460 7 7
24 12 38 12 14 0 31 -5 38 -12z m-184 -100 c13 -19 16 -57 16 -218 0 -139 -3
-199 -12 -208 -9 -9 -99 -12 -344 -12 l-332 0 -14 38 c-9 25 -13 91 -13 208 0
155 2 174 19 193 19 21 26 21 342 21 322 0 323 0 338 -22z m974 10 c34 -42 41
-310 10 -403 l-13 -40 -339 -3 c-265 -2 -341 1 -348 10 -4 7 -8 106 -8 220 0
187 2 208 18 217 27 16 667 15 680 -1z m-1753 -203 l0 -70 -37 -3 c-48 -4 -78
24 -78 73 0 49 30 77 78 73 l37 -3 0 -70z m1948 60 c10 -7 21 -31 24 -53 7
-53 -20 -82 -77 -82 l-40 0 0 75 0 75 38 0 c20 0 45 -7 55 -15z m-1655 -447
c5 -39 -30 -56 -58 -28 -28 28 -11 63 28 58 21 -2 28 -9 30 -30z m1332 17 c20
-24 3 -55 -30 -55 -20 0 -31 6 -35 20 -8 25 10 50 35 50 10 0 23 -7 30 -15z
m-632 -584 c3 -98 -9 -121 -66 -121 -59 0 -72 21 -72 115 0 45 3 85 7 89 4 4
34 6 68 4 l60 -3 3 -84z"/>
<path d="M1715 2838 c-3 -8 -4 -68 -3 -133 3 -108 5 -120 22 -123 26 -5 36 14
36 73 l1 50 15 -27 c19 -35 39 -35 61 -1 l18 27 5 -59 c4 -52 8 -60 25 -60 19
0 20 7 20 130 0 114 -2 130 -17 133 -12 2 -26 -14 -49 -59 l-31 -63 -32 60
c-30 57 -61 79 -71 52z"/>
<path d="M1977 2844 c-4 -4 -7 -65 -7 -136 l0 -128 65 0 c62 0 65 1 65 24 0
21 -5 25 -37 28 -44 4 -55 28 -21 43 30 13 30 39 0 43 -19 3 -23 9 -20 35 3
29 6 32 41 35 35 3 38 6 35 30 -3 25 -7 27 -58 30 -31 2 -59 0 -63 -4z"/>
<path d="M2134 2837 c-3 -8 9 -42 26 -78 23 -48 30 -78 30 -122 0 -55 1 -58
23 -55 19 3 22 10 25 58 1 31 14 82 29 117 25 62 26 93 0 93 -7 0 -22 -19 -34
-42 l-20 -43 -22 43 c-21 41 -47 55 -57 29z"/>
<path d="M2634 2837 c-2 -7 -3 -67 -2 -133 l3 -119 46 -3 c38 -2 50 1 72 24
25 24 27 33 27 106 0 75 -2 81 -29 109 -23 23 -38 29 -71 29 -24 0 -43 -5 -46
-13z m84 -59 c12 -12 16 -95 6 -122 -3 -9 -12 -16 -20 -16 -11 0 -14 18 -14
75 0 75 5 86 28 63z"/>
<path d="M2832 2842 c-9 -7 -12 -40 -10 -133 l3 -124 65 0 c58 0 65 2 65 20 0
16 -8 21 -40 25 -48 6 -61 34 -21 44 33 8 33 34 0 46 -20 8 -25 16 -22 38 3
23 8 27 40 30 39 3 56 25 37 48 -13 15 -96 19 -117 6z"/>
<path d="M2987 2836 c-6 -16 57 -234 71 -248 13 -13 43 -6 53 12 19 34 71 221
65 235 -6 17 -32 20 -41 5 -3 -5 -16 -44 -29 -87 -12 -42 -25 -72 -28 -67 -4
5 -14 38 -23 74 -9 36 -21 71 -27 78 -14 16 -35 15 -41 -2z"/>
<path d="M3210 2725 c0 -22 4 -26 23 -23 14 2 22 10 22 23 0 13 -8 21 -22 23
-19 3 -23 -1 -23 -23z"/>
</g>
</svg>
